<mxfile host="app.diagrams.net" agent="Mozilla/5.0 (Macintosh; Intel Mac OS X 10_15_7) AppleWebKit/537.36 (KHTML, like Gecko) Chrome/128.0.0.0 Safari/537.36" version="24.7.16">
  <diagram name="Page-1" id="b8AXuWcvParX6ATXbOUP">
    <mxGraphModel dx="964" dy="539" grid="1" gridSize="10" guides="1" tooltips="1" connect="1" arrows="1" fold="1" page="1" pageScale="1" pageWidth="850" pageHeight="1100" math="0" shadow="0">
      <root>
        <mxCell id="0" />
        <mxCell id="1" parent="0" />
        <mxCell id="Y9FigPxtaykierwcNPQT-2" value="" style="swimlane;startSize=0;" vertex="1" parent="1">
          <mxGeometry x="250" y="90" width="340" height="350" as="geometry">
            <mxRectangle x="320" y="90" width="50" height="40" as="alternateBounds" />
          </mxGeometry>
        </mxCell>
        <mxCell id="Y9FigPxtaykierwcNPQT-14" style="edgeStyle=orthogonalEdgeStyle;rounded=0;orthogonalLoop=1;jettySize=auto;html=1;entryX=0;entryY=0.5;entryDx=0;entryDy=0;" edge="1" parent="Y9FigPxtaykierwcNPQT-2" source="Y9FigPxtaykierwcNPQT-5" target="Y9FigPxtaykierwcNPQT-13">
          <mxGeometry relative="1" as="geometry" />
        </mxCell>
        <mxCell id="Y9FigPxtaykierwcNPQT-15" style="edgeStyle=orthogonalEdgeStyle;rounded=0;orthogonalLoop=1;jettySize=auto;html=1;entryX=1;entryY=0.5;entryDx=0;entryDy=0;" edge="1" parent="Y9FigPxtaykierwcNPQT-2" source="Y9FigPxtaykierwcNPQT-5" target="Y9FigPxtaykierwcNPQT-11">
          <mxGeometry relative="1" as="geometry" />
        </mxCell>
        <mxCell id="Y9FigPxtaykierwcNPQT-5" value="Create" style="ellipse;whiteSpace=wrap;html=1;" vertex="1" parent="Y9FigPxtaykierwcNPQT-2">
          <mxGeometry x="130" y="70" width="80" height="50" as="geometry" />
        </mxCell>
        <mxCell id="Y9FigPxtaykierwcNPQT-18" style="edgeStyle=orthogonalEdgeStyle;rounded=0;orthogonalLoop=1;jettySize=auto;html=1;entryX=0;entryY=0.5;entryDx=0;entryDy=0;" edge="1" parent="Y9FigPxtaykierwcNPQT-2" source="Y9FigPxtaykierwcNPQT-6" target="Y9FigPxtaykierwcNPQT-17">
          <mxGeometry relative="1" as="geometry" />
        </mxCell>
        <mxCell id="Y9FigPxtaykierwcNPQT-6" value="Read" style="ellipse;whiteSpace=wrap;html=1;" vertex="1" parent="Y9FigPxtaykierwcNPQT-2">
          <mxGeometry x="130" y="140" width="80" height="50" as="geometry" />
        </mxCell>
        <mxCell id="Y9FigPxtaykierwcNPQT-7" value="Update" style="ellipse;whiteSpace=wrap;html=1;" vertex="1" parent="Y9FigPxtaykierwcNPQT-2">
          <mxGeometry x="130" y="210" width="80" height="50" as="geometry" />
        </mxCell>
        <mxCell id="Y9FigPxtaykierwcNPQT-8" value="Delete" style="ellipse;whiteSpace=wrap;html=1;" vertex="1" parent="Y9FigPxtaykierwcNPQT-2">
          <mxGeometry x="130" y="280" width="80" height="50" as="geometry" />
        </mxCell>
        <mxCell id="Y9FigPxtaykierwcNPQT-11" value="Patient" style="ellipse;whiteSpace=wrap;html=1;" vertex="1" parent="Y9FigPxtaykierwcNPQT-2">
          <mxGeometry x="80" y="10" width="50" height="40" as="geometry" />
        </mxCell>
        <mxCell id="Y9FigPxtaykierwcNPQT-13" value="Room" style="ellipse;whiteSpace=wrap;html=1;" vertex="1" parent="Y9FigPxtaykierwcNPQT-2">
          <mxGeometry x="200" y="10" width="50" height="40" as="geometry" />
        </mxCell>
        <mxCell id="Y9FigPxtaykierwcNPQT-21" value="" style="edgeStyle=orthogonalEdgeStyle;rounded=0;orthogonalLoop=1;jettySize=auto;html=1;" edge="1" parent="Y9FigPxtaykierwcNPQT-2" source="Y9FigPxtaykierwcNPQT-17" target="Y9FigPxtaykierwcNPQT-20">
          <mxGeometry relative="1" as="geometry" />
        </mxCell>
        <mxCell id="Y9FigPxtaykierwcNPQT-17" value="Patient_id" style="ellipse;whiteSpace=wrap;html=1;" vertex="1" parent="Y9FigPxtaykierwcNPQT-2">
          <mxGeometry x="240" y="120" width="60" height="40" as="geometry" />
        </mxCell>
        <mxCell id="Y9FigPxtaykierwcNPQT-20" value="&lt;font style=&quot;font-size: 9px;&quot;&gt;Name,Room,Status&lt;/font&gt;" style="ellipse;whiteSpace=wrap;html=1;" vertex="1" parent="Y9FigPxtaykierwcNPQT-2">
          <mxGeometry x="225" y="170" width="90" height="40" as="geometry" />
        </mxCell>
        <mxCell id="Y9FigPxtaykierwcNPQT-24" value="" style="endArrow=classic;html=1;rounded=0;exitX=0;exitY=0.5;exitDx=0;exitDy=0;entryX=0.5;entryY=1;entryDx=0;entryDy=0;" edge="1" parent="Y9FigPxtaykierwcNPQT-2" source="Y9FigPxtaykierwcNPQT-6" target="Y9FigPxtaykierwcNPQT-11">
          <mxGeometry width="50" height="50" relative="1" as="geometry">
            <mxPoint x="190" y="180" as="sourcePoint" />
            <mxPoint x="240" y="130" as="targetPoint" />
          </mxGeometry>
        </mxCell>
        <mxCell id="Y9FigPxtaykierwcNPQT-25" value="" style="endArrow=classic;html=1;rounded=0;exitX=0;exitY=0.5;exitDx=0;exitDy=0;entryX=0.5;entryY=1;entryDx=0;entryDy=0;" edge="1" parent="Y9FigPxtaykierwcNPQT-2" target="Y9FigPxtaykierwcNPQT-13">
          <mxGeometry width="50" height="50" relative="1" as="geometry">
            <mxPoint x="210" y="160" as="sourcePoint" />
            <mxPoint x="185" y="45" as="targetPoint" />
          </mxGeometry>
        </mxCell>
        <mxCell id="Y9FigPxtaykierwcNPQT-29" value="" style="endArrow=classic;html=1;rounded=0;exitX=0;exitY=0.5;exitDx=0;exitDy=0;entryX=0.285;entryY=0.996;entryDx=0;entryDy=0;entryPerimeter=0;" edge="1" parent="Y9FigPxtaykierwcNPQT-2" target="Y9FigPxtaykierwcNPQT-11">
          <mxGeometry width="50" height="50" relative="1" as="geometry">
            <mxPoint x="130" y="235" as="sourcePoint" />
            <mxPoint x="105" y="120" as="targetPoint" />
            <Array as="points">
              <mxPoint x="80" y="190" />
            </Array>
          </mxGeometry>
        </mxCell>
        <mxCell id="Y9FigPxtaykierwcNPQT-30" value="" style="endArrow=classic;html=1;rounded=0;exitX=0;exitY=0.5;exitDx=0;exitDy=0;entryX=0.6;entryY=1;entryDx=0;entryDy=0;entryPerimeter=0;" edge="1" parent="Y9FigPxtaykierwcNPQT-2" target="Y9FigPxtaykierwcNPQT-13">
          <mxGeometry width="50" height="50" relative="1" as="geometry">
            <mxPoint x="211" y="235" as="sourcePoint" />
            <mxPoint x="175" y="50" as="targetPoint" />
            <Array as="points">
              <mxPoint x="220" y="200" />
            </Array>
          </mxGeometry>
        </mxCell>
        <mxCell id="Y9FigPxtaykierwcNPQT-32" value="" style="endArrow=classic;html=1;rounded=0;exitX=0;exitY=0.5;exitDx=0;exitDy=0;entryX=0;entryY=1;entryDx=0;entryDy=0;" edge="1" parent="Y9FigPxtaykierwcNPQT-2" target="Y9FigPxtaykierwcNPQT-11">
          <mxGeometry width="50" height="50" relative="1" as="geometry">
            <mxPoint x="130" y="305" as="sourcePoint" />
            <mxPoint x="94" y="120" as="targetPoint" />
            <Array as="points">
              <mxPoint x="40" y="260" />
            </Array>
          </mxGeometry>
        </mxCell>
        <mxCell id="Y9FigPxtaykierwcNPQT-33" value="" style="endArrow=classic;html=1;rounded=0;exitX=1;exitY=0.5;exitDx=0;exitDy=0;entryX=0.323;entryY=1.032;entryDx=0;entryDy=0;entryPerimeter=0;" edge="1" parent="Y9FigPxtaykierwcNPQT-2" source="Y9FigPxtaykierwcNPQT-8" target="Y9FigPxtaykierwcNPQT-13">
          <mxGeometry width="50" height="50" relative="1" as="geometry">
            <mxPoint x="140" y="315" as="sourcePoint" />
            <mxPoint x="97" y="54" as="targetPoint" />
            <Array as="points">
              <mxPoint x="230" y="270" />
            </Array>
          </mxGeometry>
        </mxCell>
        <mxCell id="Y9FigPxtaykierwcNPQT-34" value="FIlter &amp;amp; sort" style="text;html=1;align=center;verticalAlign=middle;whiteSpace=wrap;rounded=0;" vertex="1" parent="Y9FigPxtaykierwcNPQT-2">
          <mxGeometry x="80" y="120" width="60" height="30" as="geometry" />
        </mxCell>
        <mxCell id="Y9FigPxtaykierwcNPQT-35" value="Filter" style="text;html=1;align=center;verticalAlign=middle;whiteSpace=wrap;rounded=0;" vertex="1" parent="Y9FigPxtaykierwcNPQT-2">
          <mxGeometry x="270" y="150" width="60" height="30" as="geometry" />
        </mxCell>
        <mxCell id="Y9FigPxtaykierwcNPQT-10" style="edgeStyle=orthogonalEdgeStyle;rounded=0;orthogonalLoop=1;jettySize=auto;html=1;entryX=0;entryY=0.5;entryDx=0;entryDy=0;" edge="1" parent="1" source="Y9FigPxtaykierwcNPQT-3" target="Y9FigPxtaykierwcNPQT-5">
          <mxGeometry relative="1" as="geometry" />
        </mxCell>
        <mxCell id="Y9FigPxtaykierwcNPQT-26" style="edgeStyle=orthogonalEdgeStyle;rounded=0;orthogonalLoop=1;jettySize=auto;html=1;entryX=0;entryY=0.5;entryDx=0;entryDy=0;" edge="1" parent="1" source="Y9FigPxtaykierwcNPQT-3" target="Y9FigPxtaykierwcNPQT-6">
          <mxGeometry relative="1" as="geometry" />
        </mxCell>
        <mxCell id="Y9FigPxtaykierwcNPQT-27" style="edgeStyle=orthogonalEdgeStyle;rounded=0;orthogonalLoop=1;jettySize=auto;html=1;entryX=0;entryY=0.5;entryDx=0;entryDy=0;" edge="1" parent="1" source="Y9FigPxtaykierwcNPQT-3" target="Y9FigPxtaykierwcNPQT-7">
          <mxGeometry relative="1" as="geometry" />
        </mxCell>
        <mxCell id="Y9FigPxtaykierwcNPQT-28" style="edgeStyle=orthogonalEdgeStyle;rounded=0;orthogonalLoop=1;jettySize=auto;html=1;entryX=0;entryY=0.5;entryDx=0;entryDy=0;" edge="1" parent="1" source="Y9FigPxtaykierwcNPQT-3" target="Y9FigPxtaykierwcNPQT-8">
          <mxGeometry relative="1" as="geometry" />
        </mxCell>
        <mxCell id="Y9FigPxtaykierwcNPQT-3" value="Admin" style="shape=umlActor;verticalLabelPosition=bottom;verticalAlign=top;html=1;outlineConnect=0;" vertex="1" parent="1">
          <mxGeometry x="140" y="250" width="30" height="60" as="geometry" />
        </mxCell>
        <mxCell id="Y9FigPxtaykierwcNPQT-19" style="edgeStyle=orthogonalEdgeStyle;rounded=0;orthogonalLoop=1;jettySize=auto;html=1;entryX=1;entryY=0.5;entryDx=0;entryDy=0;" edge="1" parent="1" source="Y9FigPxtaykierwcNPQT-4" target="Y9FigPxtaykierwcNPQT-17">
          <mxGeometry relative="1" as="geometry" />
        </mxCell>
        <mxCell id="Y9FigPxtaykierwcNPQT-4" value="Patient Family" style="shape=umlActor;verticalLabelPosition=bottom;verticalAlign=top;html=1;outlineConnect=0;" vertex="1" parent="1">
          <mxGeometry x="640" y="250" width="30" height="60" as="geometry" />
        </mxCell>
      </root>
    </mxGraphModel>
  </diagram>
</mxfile>
